<?xml version="1.0" encoding="utf-8"?>
<!-- Generator: Adobe Illustrator 16.0.0, SVG Export Plug-In . SVG Version: 6.00 Build 0)  -->
<!DOCTYPE svg PUBLIC "-//W3C//DTD SVG 1.1//EN" "http://www.w3.org/Graphics/SVG/1.1/DTD/svg11.dtd">
<svg version="1.1" id="Layer_1" xmlns="http://www.w3.org/2000/svg" xmlns:xlink="http://www.w3.org/1999/xlink" x="0px" y="0px"
	 width="248.5px" height="24.5px" viewBox="0 0 248.5 24.5" enable-background="new 0 0 248.5 24.5" xml:space="preserve">
<g>
	<linearGradient id="SVGID_1_" gradientUnits="userSpaceOnUse" x1="105.8867" y1="9.9302" x2="259.014" y2="36.4198">
		<stop  offset="0" style="stop-color:#BF323D"/>
		<stop  offset="1" style="stop-color:#13426C"/>
	</linearGradient>
	<path fill="url(#SVGID_1_)" d="M114.959,20.085l0.797-0.706c0.721,0.871,1.623,1.599,2.705,2.18c1.082,0.581,2.304,0.87,3.667,0.87
		c1.122,0,2.091-0.146,2.908-0.441s1.433-0.684,1.849-1.164c0.415-0.479,0.716-0.971,0.902-1.47c0.185-0.5,0.277-1.021,0.277-1.562
		c0-0.72-0.143-1.355-0.428-1.905c-0.286-0.551-0.67-0.996-1.151-1.336c-0.481-0.341-1.032-0.64-1.654-0.9s-1.279-0.49-1.972-0.689
		c-0.693-0.198-1.381-0.396-2.064-0.592c-0.683-0.196-1.335-0.429-1.957-0.7c-0.621-0.27-1.172-0.583-1.653-0.938
		c-0.48-0.356-0.864-0.819-1.149-1.391c-0.286-0.571-0.429-1.232-0.429-1.983c0-1.072,0.303-2.014,0.909-2.826
		c0.606-0.811,1.392-1.417,2.359-1.819c0.967-0.399,2.021-0.601,3.164-0.601c2.865,0,5.079,0.967,6.642,2.901l-0.766,0.706
		c-1.373-1.782-3.332-2.674-5.876-2.674c-1.513,0-2.786,0.408-3.817,1.227s-1.548,1.859-1.548,3.122
		c0,0.798,0.229,1.472,0.688,2.022c0.458,0.55,1.051,0.982,1.778,1.294c0.727,0.314,1.53,0.607,2.411,0.88
		c0.88,0.272,1.767,0.546,2.661,0.823s1.708,0.619,2.444,1.024c0.735,0.406,1.334,0.978,1.798,1.714
		c0.463,0.738,0.695,1.617,0.695,2.636c0,0.501-0.063,0.991-0.188,1.473c-0.125,0.48-0.356,0.974-0.691,1.48
		c-0.336,0.505-0.759,0.949-1.27,1.329c-0.511,0.382-1.185,0.692-2.021,0.933s-1.786,0.36-2.848,0.36
		c-1.533,0-2.916-0.298-4.147-0.895C116.748,21.871,115.741,21.077,114.959,20.085z"/>
	<linearGradient id="SVGID_2_" gradientUnits="userSpaceOnUse" x1="105.8979" y1="9.8818" x2="259.014" y2="36.3695">
		<stop  offset="0" style="stop-color:#BF323D"/>
		<stop  offset="1" style="stop-color:#13426C"/>
	</linearGradient>
	<path fill="url(#SVGID_2_)" d="M132.917,18.401c0-1.512,0.516-2.718,1.548-3.613c1.032-0.897,2.249-1.345,3.651-1.345
		c2.084,0,3.797,0.731,5.14,2.192V12.27c0-1.161-0.397-2.066-1.194-2.711c-0.797-0.646-1.791-0.97-2.983-0.97
		c-0.981,0-1.854,0.183-2.615,0.549c-0.761,0.365-1.483,0.96-2.164,1.781l-0.707-0.617c0.751-0.882,1.55-1.527,2.397-1.939
		c0.847-0.41,1.876-0.616,3.088-0.616c1.533,0,2.768,0.383,3.705,1.15c0.936,0.766,1.404,1.881,1.404,3.343v10.745h-0.932v-1.818
		c-1.343,1.463-3.056,2.194-5.14,2.194c-0.892,0-1.725-0.188-2.501-0.564c-0.777-0.375-1.42-0.948-1.932-1.72
		C133.173,20.306,132.917,19.414,132.917,18.401z M135.157,15.449c-0.812,0.786-1.217,1.771-1.217,2.952
		c0,1.184,0.406,2.164,1.217,2.945s1.878,1.174,3.201,1.174c0.992,0,1.917-0.194,2.772-0.579c0.857-0.387,1.566-0.949,2.127-1.691
		v-3.696c-0.561-0.741-1.27-1.308-2.127-1.699c-0.855-0.39-1.78-0.585-2.772-0.585C137.035,14.27,135.968,14.662,135.157,15.449z"/>
	<linearGradient id="SVGID_3_" gradientUnits="userSpaceOnUse" x1="106.7002" y1="5.2437" x2="259.817" y2="31.7314">
		<stop  offset="0" style="stop-color:#BF323D"/>
		<stop  offset="1" style="stop-color:#13426C"/>
	</linearGradient>
	<path fill="url(#SVGID_3_)" d="M149.463,22.985V2.457h0.933v20.528H149.463z"/>
	<linearGradient id="SVGID_4_" gradientUnits="userSpaceOnUse" x1="106.5771" y1="5.9688" x2="259.6921" y2="32.4562">
		<stop  offset="0" style="stop-color:#BF323D"/>
		<stop  offset="1" style="stop-color:#13426C"/>
	</linearGradient>
	<path fill="url(#SVGID_4_)" d="M154.873,15.531c0-1.422,0.301-2.727,0.901-3.914c0.602-1.188,1.44-2.129,2.519-2.826
		c1.076-0.696,2.267-1.044,3.568-1.044c1.103,0,2.1,0.21,2.99,0.631c0.893,0.42,1.619,0.994,2.18,1.721
		c0.562,0.726,0.988,1.553,1.285,2.479c0.296,0.928,0.442,1.911,0.442,2.953v0.316h-12.833c0.029,1.223,0.296,2.334,0.797,3.335
		c0.5,1.003,1.228,1.81,2.178,2.42c0.953,0.611,2.04,0.918,3.262,0.918c2.044,0,3.768-0.747,5.17-2.24l0.557,0.586
		c-0.793,0.822-1.644,1.442-2.556,1.863c-0.911,0.421-1.969,0.632-3.171,0.632c-2.144,0-3.895-0.736-5.252-2.209
		C155.552,19.68,154.873,17.806,154.873,15.531z M155.926,15.021h11.843c0-0.581-0.076-1.17-0.227-1.766
		c-0.149-0.597-0.386-1.175-0.706-1.735c-0.321-0.561-0.706-1.058-1.157-1.488c-0.45-0.431-1.01-0.779-1.675-1.044
		c-0.667-0.266-1.391-0.399-2.172-0.399c-0.742,0-1.431,0.13-2.066,0.391c-0.637,0.26-1.184,0.603-1.639,1.029
		c-0.455,0.425-0.85,0.92-1.179,1.479c-0.332,0.563-0.579,1.14-0.745,1.736C156.039,13.82,155.946,14.42,155.926,15.021z"/>
	<linearGradient id="SVGID_5_" gradientUnits="userSpaceOnUse" x1="107.0098" y1="3.3911" x2="260.1545" y2="29.8837">
		<stop  offset="0" style="stop-color:#BF323D"/>
		<stop  offset="1" style="stop-color:#13426C"/>
	</linearGradient>
	<path fill="url(#SVGID_5_)" d="M171.952,20.986l0.736-0.676c0.491,0.661,1.143,1.194,1.955,1.601
		c0.811,0.405,1.732,0.609,2.765,0.609c1.341,0,2.405-0.324,3.195-0.97s1.187-1.47,1.187-2.472c0-0.611-0.176-1.132-0.527-1.563
		c-0.35-0.431-0.807-0.761-1.367-0.991c-0.562-0.23-1.18-0.44-1.856-0.632c-0.676-0.19-1.352-0.381-2.028-0.571
		c-0.677-0.191-1.295-0.422-1.856-0.692c-0.561-0.271-1.016-0.653-1.368-1.15c-0.349-0.495-0.525-1.094-0.525-1.795
		c0-1.132,0.452-2.072,1.355-2.818c0.902-0.747,2.132-1.12,3.688-1.12c2.251,0,3.95,0.751,5.101,2.254l-0.674,0.617
		c-0.441-0.632-1.045-1.128-1.81-1.489c-0.765-0.36-1.638-0.541-2.617-0.541c-1.26,0-2.261,0.292-3.001,0.874
		s-1.109,1.326-1.109,2.23c0,0.491,0.137,0.918,0.409,1.28c0.272,0.361,0.631,0.64,1.072,0.836c0.442,0.195,0.951,0.369,1.528,0.521
		s1.161,0.306,1.753,0.46s1.174,0.345,1.743,0.571c0.572,0.225,1.08,0.48,1.525,0.766c0.447,0.286,0.809,0.682,1.082,1.187
		c0.276,0.507,0.414,1.095,0.414,1.766c0,1.232-0.456,2.254-1.365,3.065c-0.91,0.812-2.226,1.218-3.947,1.218
		c-1.182,0-2.204-0.186-3.065-0.557C173.48,22.435,172.685,21.828,171.952,20.986z"/>
	<linearGradient id="SVGID_6_" gradientUnits="userSpaceOnUse" x1="107.9619" y1="-2.083" x2="261.0939" y2="24.4074">
		<stop  offset="0" style="stop-color:#BF323D"/>
		<stop  offset="1" style="stop-color:#13426C"/>
	</linearGradient>
	<path fill="url(#SVGID_6_)" d="M187.259,22.985V2.457h12.563v0.916h-11.571v8.596h11.347v0.918h-11.347v10.099H187.259z"/>
	<linearGradient id="SVGID_7_" gradientUnits="userSpaceOnUse" x1="108.2549" y1="-3.8521" x2="261.4102" y2="22.6424">
		<stop  offset="0" style="stop-color:#BF323D"/>
		<stop  offset="1" style="stop-color:#13426C"/>
	</linearGradient>
	<path fill="url(#SVGID_7_)" d="M203.596,22.985V2.457h0.932v20.528H203.596z"/>
	<linearGradient id="SVGID_8_" gradientUnits="userSpaceOnUse" x1="108.1309" y1="-3.0952" x2="261.2708" y2="23.3966">
		<stop  offset="0" style="stop-color:#BF323D"/>
		<stop  offset="1" style="stop-color:#13426C"/>
	</linearGradient>
	<path fill="url(#SVGID_8_)" d="M209.854,19.491c-0.565-1.187-0.85-2.507-0.85-3.96c0-1.452,0.284-2.768,0.85-3.945
		c0.566-1.176,1.381-2.11,2.442-2.803c1.063-0.69,2.274-1.036,3.637-1.036c1.373,0,2.59,0.346,3.651,1.036
		c1.063,0.692,1.871,1.623,2.428,2.797c0.556,1.171,0.834,2.488,0.834,3.951s-0.278,2.785-0.834,3.968
		c-0.557,1.183-1.365,2.122-2.428,2.817c-1.062,0.697-2.278,1.045-3.651,1.045c-1.362,0-2.574-0.348-3.637-1.045
		C211.234,21.621,210.42,20.679,209.854,19.491z M210.012,15.531c0,1.232,0.226,2.372,0.676,3.419
		c0.452,1.048,1.136,1.903,2.052,2.57c0.917,0.666,1.981,1,3.193,1c0.922,0,1.764-0.194,2.524-0.579
		c0.762-0.387,1.385-0.904,1.872-1.557c0.485-0.649,0.858-1.392,1.118-2.224c0.261-0.831,0.393-1.708,0.393-2.63
		c0-0.911-0.132-1.781-0.393-2.606c-0.26-0.827-0.633-1.563-1.118-2.21c-0.487-0.646-1.11-1.162-1.872-1.547
		c-0.761-0.386-1.603-0.579-2.524-0.579c-1.212,0-2.276,0.331-3.193,0.992c-0.916,0.661-1.6,1.513-2.052,2.554
		C210.237,13.177,210.012,14.31,210.012,15.531z"/>
	<linearGradient id="SVGID_9_" gradientUnits="userSpaceOnUse" x1="108.7822" y1="-6.7979" x2="261.9071" y2="19.6913">
		<stop  offset="0" style="stop-color:#BF323D"/>
		<stop  offset="1" style="stop-color:#13426C"/>
	</linearGradient>
	<path fill="url(#SVGID_9_)" d="M225.371,8.122h1.022l4.297,13.421l4.464-13.421h0.737l4.462,13.421l4.314-13.421h1.021
		l-4.919,14.863h-0.738l-4.503-13.48l-4.503,13.48h-0.738L225.371,8.122z"/>
</g>
<g>
	<g>
		<g>
			<path fill-rule="evenodd" clip-rule="evenodd" fill="#243847" d="M43.477,20.9c-0.047-0.009-0.094-0.027-0.142-0.029
				c-0.922-0.051-1.784-0.294-2.51-0.901c-0.614-0.513-1-1.191-1.199-1.969c-0.111-0.432-0.171-0.879-0.224-1.322
				c-0.039-0.329-0.038-0.663-0.038-0.995c-0.002-2.48-0.001-4.959-0.001-7.439c0-0.06,0-0.119,0-0.186c1.375,0,2.733,0,4.112,0
				c0,0.056,0,0.11,0,0.163c0,2.334-0.009,4.668,0.005,7.003c0.004,0.628,0.104,1.249,0.465,1.788
				c0.311,0.463,0.751,0.71,1.292,0.79c0.81,0.121,1.52-0.117,2.156-0.618c0.454-0.356,0.797-0.817,1.132-1.287
				c0.146-0.207,0.198-0.416,0.196-0.673c-0.008-2.328-0.004-4.658-0.004-6.988c0-0.055,0-0.111,0-0.177
				c0.057-0.004,0.102-0.008,0.146-0.008c1.278,0,2.555,0.001,3.832-0.003c0.119,0,0.158,0.027,0.158,0.155
				c-0.003,4.101-0.002,8.199-0.002,12.301c0,0.042,0,0.082,0,0.131c-1.378,0-2.746,0-4.129,0c0-0.738,0-1.482,0-2.253
				c-0.07,0.069-0.12,0.116-0.165,0.163c-0.491,0.552-1.002,1.077-1.622,1.482c-0.594,0.39-1.238,0.652-1.938,0.757
				c-0.255,0.04-0.514,0.058-0.771,0.087c-0.03,0.005-0.058,0.021-0.088,0.029C43.918,20.9,43.697,20.9,43.477,20.9z"/>
			<polygon fill-rule="evenodd" clip-rule="evenodd" fill="#243847" points="48.722,20.876 48.722,20.448 52.851,20.448 
				52.851,20.9 			"/>
			<path fill-rule="evenodd" clip-rule="evenodd" fill="#243847" d="M25.311,3.567c1.617,0,3.235,0,4.868,0
				c0,4.527,0,9.046,0,13.581c2.73,0,5.443,0,8.165,0c0,1.251,0,2.491,0,3.749c-0.057,0-0.114,0-0.171,0c-4.232,0-8.465,0-12.698,0
				c-0.055,0-0.11,0-0.165,0C25.311,15.123,25.311,9.345,25.311,3.567z"/>
			<path fill-rule="evenodd" clip-rule="evenodd" fill="#243847" d="M82.515,21.199c-0.071-0.011-0.142-0.026-0.213-0.03
				c-1.489-0.078-2.893-0.435-4.133-1.323c-1.206-0.863-1.942-2.046-2.3-3.493c-0.184-0.75-0.231-1.514-0.184-2.275
				c0.078-1.291,0.458-2.48,1.257-3.504c0.534-0.685,1.195-1.214,1.966-1.6c0.717-0.358,1.47-0.599,2.261-0.707
				c0.351-0.048,0.704-0.088,1.057-0.111c0.351-0.023,0.707-0.045,1.058-0.025c0.824,0.042,1.622,0.214,2.383,0.549
				c0.7,0.308,1.32,0.733,1.845,1.298c0.611,0.657,1.038,1.425,1.282,2.292c0.127,0.449,0.203,0.916,0.279,1.38
				c0.101,0.592,0.089,1.19,0.084,1.789c0,0.019-0.004,0.038-0.008,0.067c-3.096,0-6.186,0-9.287,0
				c0.067,0.421,0.171,0.811,0.362,1.171c0.563,1.064,1.468,1.661,2.585,1.959c0.406,0.109,0.825,0.153,1.243,0.138
				c1.017-0.035,2.014-0.197,2.98-0.516c0.546-0.181,1.08-0.399,1.618-0.602c0.047-0.018,0.094-0.031,0.149-0.049
				c0,0.746,0.001,1.482-0.004,2.22c-0.001,0.042-0.053,0.104-0.097,0.127c-0.547,0.278-1.111,0.522-1.703,0.677
				c-0.546,0.143-1.098,0.267-1.652,0.365c-0.415,0.075-0.836,0.103-1.256,0.145c-0.182,0.018-0.365,0.02-0.548,0.029
				c-0.039,0.004-0.076,0.02-0.115,0.03C83.122,21.199,82.818,21.199,82.515,21.199z M85.327,13.755
				c0.014-0.563-0.033-1.102-0.22-1.618c-0.246-0.683-0.677-1.196-1.344-1.476c-0.578-0.243-1.176-0.283-1.788-0.145
				c-0.822,0.185-1.433,0.651-1.832,1.406c-0.229,0.435-0.317,0.904-0.357,1.388c-0.012,0.146-0.002,0.294-0.002,0.445
				C81.64,13.755,83.476,13.755,85.327,13.755z"/>
			<path fill-rule="evenodd" clip-rule="evenodd" fill="#243847" d="M61.749,3.582c0.037,0.01,0.076,0.024,0.114,0.028
				c0.473,0.048,0.949,0.092,1.423,0.145c0.07,0.007,0.144,0.022,0.143,0.138c-0.004,0.842-0.002,1.684-0.003,2.525
				c0,0.027-0.005,0.053-0.01,0.091c-0.242-0.039-0.476-0.083-0.711-0.111c-0.447-0.055-0.898-0.106-1.339,0.027
				c-0.634,0.19-0.99,0.649-1.158,1.269c-0.134,0.486-0.077,0.984-0.086,1.49c0.782,0,1.553,0,2.334,0c0,0.853,0,1.696,0,2.55
				c-0.772,0-1.542,0-2.334,0c0,0.063,0,0.116,0,0.17c0,1.979,0,3.958,0.002,5.938c0,0.114-0.026,0.191-0.114,0.281
				c-0.449,0.451-0.929,0.859-1.448,1.224c-0.907,0.642-1.886,1.127-2.971,1.367c-0.315,0.071-0.641,0.096-0.98,0.145
				c0.194-0.136,0.38-0.238,0.536-0.376c0.413-0.367,0.632-0.853,0.756-1.383c0.054-0.233,0.083-0.479,0.084-0.719
				c0.005-2.155,0.002-4.311,0.002-6.464c0-0.055,0-0.108,0-0.174c-0.709,0-1.405,0-2.112,0c0-0.854,0-1.697,0-2.551
				c0.699,0,1.396,0,2.112,0c0-0.077,0-0.145,0-0.211c0.007-0.833,0.084-1.652,0.386-2.437c0.252-0.657,0.62-1.236,1.142-1.706
				c0.605-0.544,1.316-0.891,2.108-1.054c0.42-0.087,0.852-0.117,1.277-0.174c0.036-0.004,0.069-0.018,0.104-0.028
				C61.251,3.582,61.499,3.582,61.749,3.582z"/>
			<path fill-rule="evenodd" clip-rule="evenodd" fill="#243847" d="M91.013,20.869c1.391,0,2.769,0,4.145,0
				c0-5.786,0-11.56,0-17.333c-1.388,0-2.763,0-4.145,0C91.013,9.315,91.013,15.087,91.013,20.869z"/>
			<path fill-rule="evenodd" clip-rule="evenodd" fill="#243847" d="M100.127,14.147c1.63-1.955,3.254-3.899,4.905-5.876
				c-0.09,0-0.144,0-0.197,0c-1.461,0-2.923,0.003-4.384-0.004c-0.203-0.001-0.366,0.021-0.47,0.223
				c-0.035,0.069-0.099,0.123-0.147,0.184c-0.313,0.39-0.625,0.782-0.937,1.172c-0.311,0.387-0.62,0.774-0.93,1.16
				c-0.308,0.383-0.615,0.765-0.921,1.147c-0.315,0.396-0.629,0.791-0.944,1.185c-0.266,0.332-0.53,0.664-0.796,0.995
				c0.053,0.067,0.101,0.131,0.149,0.191c0.283,0.35,0.567,0.697,0.849,1.047c0.329,0.407,0.655,0.814,0.985,1.222
				c0.326,0.403,0.653,0.807,0.979,1.209c0.369,0.459,0.736,0.918,1.104,1.376c0.336,0.419,0.679,0.833,1.007,1.258
				c0.134,0.172,0.269,0.257,0.501,0.254c1.567-0.013,3.134-0.007,4.701-0.007c0.053,0,0.106,0,0.198,0
				C103.884,18.62,102.011,16.392,100.127,14.147z"/>
			<path fill-rule="evenodd" clip-rule="evenodd" fill="#243847" d="M63.866,15.08c0.687-0.465,1.298-1.013,1.875-1.607
				c0.623-0.641,1.193-1.336,1.718-2.07c0.837-1.172,1.563-2.415,2.148-3.749c0.067-0.154,0.104-0.311,0.104-0.485
				c-0.006-1.14-0.003-2.279-0.003-3.418c0-0.056,0-0.112,0-0.158c-0.132-0.042-0.206,0.013-0.284,0.094
				c-1.958,2.068-3.92,4.133-5.88,6.2c-0.026,0.026-0.059,0.06-0.06,0.091c-0.008,0.142-0.004,0.287-0.004,0.44
				c0.707,0,1.396,0,2.094,0c0,0.529,0,1.046-0.001,1.565c0,0.018-0.013,0.035-0.018,0.053c-0.248,0.96-0.707,1.801-1.307,2.56
				C64.12,14.755,63.993,14.918,63.866,15.08z"/>
			<path fill-rule="evenodd" clip-rule="evenodd" fill="#243847" d="M74.136,10.411c0.006-0.039,0.01-0.053,0.01-0.067
				c0.001-0.868,0-1.736,0.001-2.604c0.001-0.102-0.04-0.12-0.124-0.12c-0.917,0.003-1.838,0-2.757,0.006
				c-0.052,0-0.127,0.052-0.153,0.102c-0.443,0.881-0.939,1.728-1.487,2.542c-0.698,1.041-1.46,2.028-2.307,2.937
				c-0.537,0.575-1.109,1.116-1.66,1.678c-0.046,0.047-0.079,0.131-0.082,0.2c-0.01,0.267-0.001,0.532-0.004,0.799
				c-0.001,0.12,0.004,0.245-0.019,0.361c-0.084,0.425-0.282,0.797-0.51,1.15c-0.332,0.517-0.748,0.955-1.197,1.358
				c-0.082,0.075-0.164,0.146-0.247,0.221c0.006,0.011,0.013,0.021,0.02,0.033c0.401-0.185,0.811-0.354,1.202-0.559
				c1.085-0.572,2.029-1.36,2.938-2.191c0.683-0.625,1.266-1.352,1.755-2.157c0.132-0.219,0.201-0.437,0.197-0.701
				c-0.014-0.939-0.005-1.881-0.005-2.821c0-0.052,0-0.104,0-0.167C71.191,10.411,72.661,10.411,74.136,10.411z"/>
			<path fill-rule="evenodd" clip-rule="evenodd" fill="#243847" d="M69.957,20.889c-0.061-0.011-0.121-0.026-0.182-0.031
				c-0.976-0.058-1.904-0.275-2.709-0.901c-0.489-0.381-0.835-0.877-1.076-1.463c-0.018-0.044-0.035-0.089-0.062-0.155
				c1.43-0.408,2.688-1.165,3.822-2.131c0.1,0.223,0.177,0.456,0.299,0.654c0.205,0.339,0.521,0.521,0.883,0.633
				c0.456,0.138,0.917,0.127,1.382,0.084c0.731-0.068,1.39-0.371,2.047-0.688c0.032-0.016,0.066-0.029,0.109-0.052
				c0.002,0.056,0.006,0.099,0.006,0.141c0,0.946-0.001,1.891,0.003,2.836c0,0.105-0.031,0.151-0.118,0.189
				c-0.729,0.303-1.476,0.546-2.25,0.677c-0.448,0.076-0.898,0.118-1.349,0.179c-0.031,0.002-0.059,0.018-0.089,0.028
				C70.435,20.889,70.195,20.889,69.957,20.889z"/>
			<path fill="none" d="M55.987,15.417"/>
			<path fill="#243847" d="M55.986,16.768l0.001,1.176c0,0,0.198,1.978-2.114,2.954c0,0,3.06,0.191,5.784-2.438L55.986,16.768z"/>
			<line fill-rule="evenodd" clip-rule="evenodd" fill="#243847" x1="55.987" y1="20.897" x2="60.12" y2="20.9"/>
			<path fill-rule="evenodd" clip-rule="evenodd" fill="#243847" d="M60.12,20.9v-1.969c0,0-1.225,1.654-4.132,1.966"/>
		</g>
		<g>
			<path fill-rule="evenodd" clip-rule="evenodd" fill="#12426C" d="M14.319,20.984c-0.03,0-0.06,0-0.09,0
				c-0.008-0.018-0.024-0.016-0.04-0.016c-0.153,0-0.306,0-0.459,0c-0.015,0-0.031-0.002-0.04,0.016c-0.038,0-0.076,0-0.115,0
				c-0.008-0.02-0.025-0.013-0.039-0.013c-0.517-0.022-1.029-0.087-1.531-0.21c-2.534-0.623-4.441-2.077-5.705-4.361
				c-0.663-1.204-0.991-2.502-1.029-3.876c0-0.149,0-0.301,0-0.449c0.016-0.651,0.095-1.293,0.264-1.92
				C6.208,7.66,7.688,5.808,9.956,4.586c0.21-0.113,0.424-0.217,0.648-0.3c0.184,0.556,0.369,1.11,0.553,1.665
				c-0.015,0.008-0.029,0.016-0.044,0.024C9.664,6.642,8.563,7.68,7.809,9.089c-0.021,0.041-0.022,0.07,0.002,0.11
				c0.12,0.2,0.236,0.401,0.353,0.603c0.007,0.012,0.01,0.03,0.032,0.033c0.017-0.308,0.033-0.613,0.049-0.918
				C8.248,8.884,8.25,8.866,8.292,8.869C8.48,8.881,8.67,8.892,8.86,8.9C8.9,8.903,8.908,8.915,8.905,8.954
				c-0.034,0.625-0.066,1.251-0.099,1.878c-0.002,0.046,0.007,0.086,0.031,0.126c0.332,0.569,0.665,1.139,0.997,1.709
				c0.063,0.108,0.063,0.104,0.182,0.082c0.048-0.009,0.062-0.026,0.062-0.073c-0.002-0.341-0.002-0.682,0-1.021
				c0-0.046-0.016-0.069-0.053-0.093c-0.355-0.226-0.71-0.456-1.067-0.682c-0.054-0.034-0.054-0.057-0.021-0.105
				c0.096-0.141,0.188-0.285,0.277-0.431c0.029-0.047,0.049-0.058,0.1-0.024c0.23,0.153,0.465,0.302,0.699,0.451
				c0.018,0.012,0.034,0.035,0.062,0.026c0-0.231,0.001-0.463,0-0.694c0-0.043,0.011-0.054,0.053-0.054
				c0.182,0.002,0.364,0.003,0.544,0c0.054-0.001,0.063,0.019,0.062,0.065c-0.002,0.216-0.001,0.432,0,0.649
				c0,0.017-0.01,0.037,0.011,0.053c0.008-0.004,0.015-0.006,0.023-0.01c0.239-0.133,0.478-0.264,0.716-0.397
				c0.039-0.022,0.055-0.017,0.076,0.022c0.086,0.16,0.173,0.32,0.265,0.477c0.028,0.047,0.013,0.062-0.027,0.085
				c-0.339,0.185-0.676,0.372-1.014,0.559c-0.032,0.018-0.051,0.033-0.05,0.076c0.001,0.354,0,0.707,0,1.059
				c0,0.036,0.007,0.052,0.046,0.059c0.326,0.071,0.614,0.217,0.858,0.445c0.031,0.028,0.052,0.031,0.087,0.009
				c0.173-0.101,0.347-0.199,0.522-0.296c0.038-0.022,0.048-0.045,0.047-0.086c-0.013-0.387-0.023-0.773-0.035-1.161
				c-0.001-0.044,0.007-0.059,0.054-0.061c0.184-0.002,0.367-0.006,0.55-0.014c0.044-0.002,0.059,0.009,0.059,0.054
				c0.003,0.214,0.01,0.428,0.014,0.643c0.002,0.071,0,0.144,0,0.229c0.035-0.021,0.053-0.029,0.071-0.04
				c0.148-0.085,0.298-0.167,0.444-0.254c0.043-0.026,0.059-0.018,0.081,0.022c0.06,0.111,0.124,0.219,0.186,0.329
				c0.036,0.063,0.106,0.135,0.094,0.188c-0.014,0.06-0.117,0.081-0.179,0.117c-0.122,0.071-0.245,0.142-0.373,0.214
				c0.025,0.014,0.042,0.022,0.059,0.031c0.251,0.129,0.501,0.255,0.753,0.381c0.038,0.021,0.043,0.033,0.024,0.071
				c-0.084,0.162-0.168,0.325-0.248,0.492c-0.021,0.042-0.038,0.044-0.08,0.024c-0.382-0.196-0.764-0.388-1.146-0.581
				c-0.036-0.019-0.063-0.022-0.099,0c-0.138,0.08-0.276,0.162-0.417,0.238c-0.04,0.022-0.048,0.04-0.03,0.083
				c0.147,0.351,0.178,0.714,0.097,1.087c-0.009,0.041-0.004,0.059,0.033,0.079c0.264,0.14,0.527,0.282,0.789,0.425
				c0.036,0.021,0.059,0.014,0.09-0.007c0.318-0.211,0.639-0.42,0.955-0.634c0.056-0.038,0.076-0.027,0.108,0.025
				c0.09,0.142,0.183,0.281,0.28,0.422c0.034,0.047,0.034,0.071-0.02,0.104c-0.237,0.151-0.47,0.308-0.71,0.468
				c0.178,0.096,0.35,0.189,0.523,0.28c0.025,0.016,0.045,0.022,0.024,0.061c-0.094,0.169-0.184,0.338-0.274,0.507
				c-0.015,0.029-0.028,0.036-0.059,0.019c-0.059-0.034-0.12-0.064-0.179-0.099c-0.118-0.062-0.235-0.124-0.362-0.193
				c0.028,0.303,0.051,0.595,0.083,0.886c0.007,0.063-0.009,0.08-0.07,0.083c-0.174,0.011-0.349,0.028-0.523,0.047
				c-0.053,0.006-0.064-0.01-0.068-0.059c-0.037-0.432-0.078-0.863-0.115-1.296c-0.002-0.028-0.012-0.042-0.035-0.056
				c-0.243-0.129-0.485-0.258-0.726-0.389c-0.027-0.016-0.039-0.012-0.056,0.011c-0.048,0.06-0.096,0.122-0.149,0.176
				c-0.034,0.036-0.04,0.058-0.013,0.103c0.288,0.489,0.573,0.979,0.857,1.472c0.022,0.035,0.049,0.063,0.086,0.082
				c0.535,0.287,1.07,0.574,1.605,0.861c0.042,0.022,0.054,0.041,0.027,0.085c-0.088,0.156-0.172,0.314-0.255,0.475
				c-0.022,0.04-0.039,0.053-0.085,0.024c-0.224-0.123-0.45-0.243-0.676-0.363c-0.006-0.002-0.013-0.009-0.017,0.002
				c-0.002,0.003,0.004,0.007,0.007,0.012c0.123,0.214,0.247,0.425,0.366,0.639c0.026,0.045,0.056,0.061,0.106,0.063
				c0.725,0.021,1.438-0.064,2.136-0.263c0.462-0.129,0.904-0.312,1.331-0.532c0.007,0.012,0.014,0.022,0.022,0.031
				c0.358,0.461,0.739,0.906,1.153,1.318c-0.012,0.007-0.023,0.018-0.036,0.024c-0.325,0.189-0.659,0.356-1.006,0.503
				c-0.884,0.369-1.805,0.59-2.761,0.654C14.481,20.967,14.398,20.956,14.319,20.984z"/>
			<path fill-rule="evenodd" clip-rule="evenodd" fill="#606C8C" d="M13.69,20.984c0.009-0.018,0.025-0.016,0.04-0.016
				c0.153,0,0.306,0,0.459,0c0.015,0,0.031-0.002,0.04,0.016C14.049,20.984,13.87,20.984,13.69,20.984z"/>
			<path fill-rule="evenodd" clip-rule="evenodd" fill="#ADB1C1" d="M5.272,12.524c-0.003,0-0.008,0-0.011,0c0-0.15,0-0.301,0-0.449
				c0.003-0.002,0.007-0.002,0.011,0C5.272,12.224,5.272,12.375,5.272,12.524z"/>
			<path fill-rule="evenodd" clip-rule="evenodd" fill="#EDD0C6" d="M13.806,3.613c0-0.003,0-0.008,0-0.011c0.099,0,0.196,0,0.294,0
				c0,0.003,0,0.007,0.001,0.011C14.003,3.613,13.905,3.613,13.806,3.613z"/>
			<path fill-rule="evenodd" clip-rule="evenodd" fill="#BF333D" d="M22.42,10.333c-0.349-1.49-1.04-2.799-2.077-3.921
				c-1.171-1.267-2.596-2.114-4.267-2.54c-0.646-0.165-1.306-0.249-1.974-0.26h-0.295c-0.857,0.016-1.693,0.151-2.509,0.414
				c-0.235,0.076-0.469,0.155-0.693,0.26c0.184,0.556,0.369,1.11,0.553,1.665c0.184-0.073,0.366-0.15,0.554-0.213
				c0.525-0.178,1.064-0.293,1.616-0.342c0.391-0.035,0.78-0.034,1.171-0.009c0.019,0.001,0.038,0.007,0.057,0.006
				c0.042,0,0.056,0.018,0.063,0.06c0.003,0.019,0.006,0.037,0.01,0.054c0.137-0.031,0.279-0.049,0.425-0.049
				c0.536,0,1.025,0.227,1.379,0.587c0.248,0.012,0.485,0.071,0.702,0.17c0.004-0.009,0.01-0.018,0.015-0.027
				c0.015-0.027,0.025-0.031,0.053-0.016c0.177,0.095,0.349,0.197,0.519,0.304c0.032,0.021,0.029,0.038,0.015,0.067
				c-0.01,0.022-0.021,0.043-0.032,0.065c0.179,0.177,0.325,0.387,0.426,0.62c0.073,0.052,0.142,0.109,0.207,0.17
				c0.991,0.082,1.791,0.93,1.791,1.938c0,0.127-0.013,0.254-0.038,0.375c0.501,0.354,0.835,0.936,0.835,1.586
				c0,0.384-0.117,0.742-0.313,1.045c-0.097,0.357-0.292,0.677-0.557,0.924c0.007,0.068,0.012,0.137,0.012,0.208
				c0,0.38-0.115,0.736-0.31,1.039c0.001,0.02,0.003,0.043,0.003,0.064c0,0.746-0.438,1.405-1.067,1.729
				c-0.114,0.475-0.401,0.887-0.794,1.158c0.082,0.091,0.166,0.181,0.255,0.265c0.039,0.036,0.043,0.052-0.004,0.087
				c-0.294,0.223-0.602,0.419-0.926,0.593c-0.011,0.004-0.021,0.013-0.032,0.02c0.007,0.012,0.014,0.022,0.022,0.031
				c0.358,0.461,0.739,0.906,1.153,1.318c0.126-0.063,0.241-0.143,0.358-0.221c0.821-0.541,1.534-1.2,2.129-1.981
				c1.102-1.449,1.697-3.086,1.781-4.907C22.67,11.881,22.599,11.103,22.42,10.333z"/>
			<path fill-rule="evenodd" clip-rule="evenodd" fill="#FEFEFE" d="M13.251,18.522c-0.002-0.005-0.009-0.009-0.007-0.012
				c0.004-0.011,0.011-0.004,0.017-0.002C13.258,18.514,13.255,18.518,13.251,18.522z"/>
			<g>
				<path fill="#BF333D" d="M14.496,5.36c0,0,1.064,3.003-0.523,4.929c0,0,1.234,0.067,3.053-4.195l-0.103-1.113L14.43,4.409"/>
				<path fill="#BF333D" d="M17.782,6.412c0,0-1.376,3.587-2.303,4.226c0,0,0.627,1.089-0.968,3.01c0,0,1.799-0.665,4.456-6.097
					L18.6,5.921L17.782,6.412z"/>
				<path fill="#BF333D" d="M19.656,8.044c0,0-1.671,4.329-3.495,5.544c0,0,0.809,1.472-0.588,3.281c0,0,3.062-2.017,4.88-7.02
					l-0.396-2.033L19.656,8.044z"/>
				<path fill="#BF333D" d="M20.95,11.062c0,0-1.534,4.497-3.292,5.52c0,0-0.021,0.797,0.552,1.204l3.475-4.312l-0.225-2.556
					L20.95,11.062z"/>
			</g>
		</g>
	</g>
	<g>
		<path fill="#243847" d="M104.337,4.07V3.657h2.085V4.07h-0.808v2.258h-0.469V4.07H104.337z"/>
		<path fill="#243847" d="M106.817,6.328V3.657h0.661l0.726,1.758l0.729-1.758h0.661v2.671h-0.469V4.345l-0.821,1.983h-0.199
			l-0.818-1.983v1.983H106.817z"/>
	</g>
</g>
</svg>
