<?xml version="1.0" encoding="utf-8"?>
<!-- Generator: Adobe Illustrator 16.0.0, SVG Export Plug-In . SVG Version: 6.00 Build 0)  -->
<!DOCTYPE svg PUBLIC "-//W3C//DTD SVG 1.1//EN" "http://www.w3.org/Graphics/SVG/1.1/DTD/svg11.dtd">
<svg version="1.1" id="Layer_1" xmlns="http://www.w3.org/2000/svg" xmlns:xlink="http://www.w3.org/1999/xlink" x="0px" y="0px"
	 width="211.25px" height="74px" viewBox="0 0 211.25 74" enable-background="new 0 0 211.25 74" xml:space="preserve">
<g>
	<linearGradient id="SVGID_1_" gradientUnits="userSpaceOnUse" x1="-8.7222" y1="50.8955" x2="223.8795" y2="91.1334">
		<stop  offset="0" style="stop-color:#BF323D"/>
		<stop  offset="1" style="stop-color:#13426C"/>
	</linearGradient>
	<path fill="url(#SVGID_1_)" d="M5.058,66.319l1.21-1.07c1.096,1.323,2.466,2.427,4.109,3.31c1.644,0.883,3.5,1.322,5.571,1.322
		c1.704,0,3.176-0.224,4.416-0.671c1.24-0.448,2.176-1.039,2.809-1.769c0.631-0.727,1.088-1.474,1.37-2.233
		c0.281-0.758,0.422-1.552,0.422-2.371c0-1.094-0.217-2.059-0.651-2.894c-0.435-0.836-1.017-1.514-1.749-2.03
		c-0.73-0.517-1.568-0.972-2.513-1.367s-1.943-0.744-2.996-1.045c-1.053-0.303-2.098-0.604-3.136-0.901
		c-1.038-0.297-2.029-0.65-2.972-1.063c-0.944-0.409-1.78-0.886-2.511-1.426s-1.313-1.244-1.746-2.111
		c-0.436-0.867-0.652-1.873-0.652-3.013c0-1.629,0.46-3.061,1.382-4.293c0.92-1.23,2.114-2.153,3.583-2.763
		c1.468-0.607,3.071-0.913,4.806-0.913c4.353,0,7.716,1.469,10.089,4.405l-1.164,1.073c-2.084-2.706-5.061-4.062-8.926-4.062
		c-2.298,0-4.23,0.62-5.798,1.864c-1.567,1.241-2.351,2.823-2.351,4.74c0,1.213,0.347,2.236,1.044,3.073
		c0.696,0.834,1.596,1.491,2.701,1.968c1.104,0.476,2.325,0.92,3.661,1.335c1.336,0.414,2.683,0.829,4.042,1.25
		c1.357,0.422,2.594,0.94,3.711,1.556c1.117,0.618,2.027,1.485,2.73,2.604c0.705,1.12,1.057,2.456,1.057,4.003
		c0,0.761-0.096,1.507-0.285,2.237c-0.191,0.729-0.541,1.479-1.05,2.248c-0.511,0.768-1.153,1.442-1.929,2.019
		c-0.776,0.58-1.8,1.053-3.071,1.418c-1.271,0.364-2.712,0.547-4.325,0.547c-2.329,0-4.429-0.453-6.301-1.359
		C7.774,69.033,6.245,67.827,5.058,66.319z"/>
	<linearGradient id="SVGID_2_" gradientUnits="userSpaceOnUse" x1="-8.7085" y1="50.8223" x2="223.8846" y2="91.0587">
		<stop  offset="0" style="stop-color:#BF323D"/>
		<stop  offset="1" style="stop-color:#13426C"/>
	</linearGradient>
	<path fill="url(#SVGID_2_)" d="M32.336,63.763c0-2.296,0.784-4.127,2.352-5.488c1.567-1.363,3.417-2.043,5.547-2.043
		c3.166,0,5.768,1.111,7.807,3.331v-5.113c0-1.764-0.604-3.139-1.814-4.119c-1.21-0.982-2.721-1.474-4.532-1.474
		c-1.491,0-2.815,0.278-3.972,0.835c-1.156,0.554-2.252,1.458-3.287,2.703l-1.073-0.935c1.141-1.341,2.354-2.319,3.641-2.945
		c1.286-0.624,2.85-0.935,4.691-0.935c2.329,0,4.204,0.581,5.628,1.745c1.421,1.163,2.134,2.858,2.134,5.08v16.32h-1.416v-2.762
		c-2.04,2.224-4.641,3.333-7.807,3.333c-1.354,0-2.621-0.286-3.8-0.856c-1.181-0.57-2.158-1.44-2.934-2.613
		C32.725,66.655,32.336,65.302,32.336,63.763z M35.738,59.278c-1.233,1.194-1.849,2.69-1.849,4.484c0,1.798,0.615,3.287,1.849,4.474
		s2.854,1.783,4.862,1.783c1.506,0,2.912-0.294,4.21-0.879c1.302-0.588,2.379-1.442,3.231-2.568v-5.617
		c-0.852-1.126-1.93-1.985-3.231-2.579c-1.298-0.593-2.704-0.89-4.21-0.89C38.592,57.486,36.971,58.082,35.738,59.278z"/>
	<linearGradient id="SVGID_3_" gradientUnits="userSpaceOnUse" x1="-7.4961" y1="43.7734" x2="225.1236" y2="84.0145">
		<stop  offset="0" style="stop-color:#BF323D"/>
		<stop  offset="1" style="stop-color:#13426C"/>
	</linearGradient>
	<path fill="url(#SVGID_3_)" d="M57.469,70.726V39.543h1.417v31.183H57.469z"/>
	<linearGradient id="SVGID_4_" gradientUnits="userSpaceOnUse" x1="-7.6724" y1="44.8789" x2="224.9042" y2="85.1125">
		<stop  offset="0" style="stop-color:#BF323D"/>
		<stop  offset="1" style="stop-color:#13426C"/>
	</linearGradient>
	<path fill="url(#SVGID_4_)" d="M65.687,59.403c0-2.161,0.457-4.142,1.37-5.947c0.913-1.802,2.188-3.232,3.826-4.292
		c1.635-1.056,3.442-1.584,5.421-1.584c1.674,0,3.189,0.317,4.542,0.958c1.356,0.641,2.459,1.51,3.311,2.613
		c0.853,1.102,1.502,2.359,1.952,3.766c0.45,1.408,0.673,2.903,0.673,4.486v0.48H67.287c0.044,1.856,0.448,3.546,1.208,5.065
		c0.761,1.523,1.865,2.749,3.31,3.677c1.447,0.928,3.098,1.394,4.954,1.394c3.104,0,5.723-1.135,7.853-3.402l0.846,0.889
		c-1.204,1.25-2.496,2.192-3.883,2.831c-1.382,0.641-2.989,0.96-4.815,0.96c-3.257,0-5.916-1.118-7.978-3.355
		C66.718,65.704,65.687,62.858,65.687,59.403z M67.287,58.627h17.988c0-0.882-0.115-1.776-0.344-2.682
		c-0.229-0.906-0.586-1.784-1.073-2.636c-0.487-0.852-1.072-1.607-1.757-2.262c-0.685-0.653-1.534-1.183-2.545-1.584
		c-1.013-0.405-2.112-0.607-3.299-0.607c-1.126,0-2.173,0.197-3.138,0.594c-0.967,0.396-1.797,0.916-2.488,1.565
		c-0.692,0.646-1.291,1.396-1.792,2.246c-0.503,0.855-0.879,1.731-1.131,2.638C67.457,56.805,67.316,57.715,67.287,58.627z"/>
	<linearGradient id="SVGID_5_" gradientUnits="userSpaceOnUse" x1="-7.0063" y1="40.9648" x2="225.5946" y2="81.2027">
		<stop  offset="0" style="stop-color:#BF323D"/>
		<stop  offset="1" style="stop-color:#13426C"/>
	</linearGradient>
	<path fill="url(#SVGID_5_)" d="M91.629,67.688l1.119-1.025c0.746,1.004,1.734,1.814,2.969,2.432c1.23,0.615,2.631,0.925,4.2,0.925
		c2.036,0,3.652-0.491,4.854-1.473c1.201-0.98,1.802-2.232,1.802-3.755c0-0.927-0.269-1.72-0.802-2.373
		c-0.53-0.655-1.223-1.156-2.075-1.506c-0.853-0.35-1.793-0.668-2.821-0.96c-1.026-0.289-2.053-0.578-3.081-0.867
		c-1.028-0.292-1.966-0.642-2.819-1.053c-0.852-0.41-1.544-0.991-2.077-1.746c-0.532-0.753-0.799-1.662-0.799-2.726
		c0-1.723,0.687-3.148,2.058-4.281c1.372-1.135,3.238-1.7,5.602-1.7c3.419,0,5.999,1.141,7.747,3.423l-1.023,0.937
		c-0.67-0.961-1.588-1.712-2.747-2.261c-1.164-0.547-2.488-0.822-3.977-0.822c-1.914,0-3.434,0.444-4.559,1.328
		c-1.124,0.886-1.686,2.014-1.686,3.387c0,0.747,0.208,1.396,0.622,1.944c0.415,0.55,0.959,0.973,1.629,1.271
		c0.673,0.298,1.446,0.561,2.322,0.791c0.876,0.231,1.762,0.463,2.663,0.698c0.897,0.234,1.782,0.525,2.648,0.867
		c0.869,0.342,1.639,0.731,2.316,1.164c0.679,0.435,1.228,1.034,1.643,1.803c0.42,0.769,0.63,1.662,0.63,2.682
		c0,1.872-0.693,3.424-2.074,4.657c-1.383,1.231-3.381,1.849-5.995,1.849c-1.795,0-3.348-0.281-4.657-0.846
		C93.951,69.89,92.742,68.968,91.629,67.688z"/>
	<linearGradient id="SVGID_6_" gradientUnits="userSpaceOnUse" x1="-5.5615" y1="32.6484" x2="227.0283" y2="72.8843">
		<stop  offset="0" style="stop-color:#BF323D"/>
		<stop  offset="1" style="stop-color:#13426C"/>
	</linearGradient>
	<path fill="url(#SVGID_6_)" d="M114.881,70.726V39.543h19.084v1.394h-17.577v13.057h17.234v1.393h-17.234v15.34H114.881z"/>
	<linearGradient id="SVGID_7_" gradientUnits="userSpaceOnUse" x1="-5.0874" y1="29.9658" x2="227.4893" y2="70.1994">
		<stop  offset="0" style="stop-color:#BF323D"/>
		<stop  offset="1" style="stop-color:#13426C"/>
	</linearGradient>
	<path fill="url(#SVGID_7_)" d="M139.696,70.726V39.543h1.414v31.183H139.696z"/>
	<linearGradient id="SVGID_8_" gradientUnits="userSpaceOnUse" x1="-5.3125" y1="31.1099" x2="227.3032" y2="71.3502">
		<stop  offset="0" style="stop-color:#BF323D"/>
		<stop  offset="1" style="stop-color:#13426C"/>
	</linearGradient>
	<path fill="url(#SVGID_8_)" d="M149.202,65.418c-0.86-1.802-1.29-3.809-1.29-6.015s0.43-4.204,1.29-5.992
		c0.859-1.788,2.097-3.206,3.71-4.257c1.612-1.049,3.454-1.574,5.524-1.574c2.084,0,3.933,0.525,5.546,1.574
		c1.611,1.051,2.842,2.464,3.688,4.247c0.844,1.778,1.266,3.781,1.266,6.002c0,2.222-0.422,4.231-1.266,6.027
		c-0.846,1.796-2.076,3.223-3.688,4.279c-1.613,1.058-3.462,1.587-5.546,1.587c-2.07,0-3.912-0.529-5.524-1.587
		C151.299,68.653,150.062,67.222,149.202,65.418z M149.441,59.403c0,1.872,0.344,3.604,1.027,5.192
		c0.687,1.592,1.725,2.892,3.116,3.905c1.393,1.011,3.009,1.519,4.852,1.519c1.399,0,2.678-0.294,3.834-0.879
		c1.156-0.588,2.104-1.374,2.842-2.364c0.738-0.987,1.305-2.113,1.701-3.38c0.395-1.261,0.595-2.593,0.595-3.993
		c0-1.385-0.2-2.705-0.595-3.959c-0.396-1.257-0.963-2.374-1.701-3.358c-0.738-0.979-1.686-1.764-2.842-2.35
		c-1.156-0.587-2.435-0.88-3.834-0.88c-1.843,0-3.459,0.504-4.852,1.508c-1.392,1.005-2.43,2.298-3.116,3.88
		C149.785,55.828,149.441,57.548,149.441,59.403z"/>
	<linearGradient id="SVGID_9_" gradientUnits="userSpaceOnUse" x1="-4.3306" y1="25.4854" x2="228.2735" y2="65.7237">
		<stop  offset="0" style="stop-color:#BF323D"/>
		<stop  offset="1" style="stop-color:#13426C"/>
	</linearGradient>
	<path fill="url(#SVGID_9_)" d="M172.772,48.149h1.553l6.527,20.386l6.78-20.386h1.12l6.779,20.386l6.552-20.386h1.552
		l-7.473,22.576h-1.12l-6.84-20.478l-6.84,20.478h-1.12L172.772,48.149z"/>
</g>
<g>
	<g>
		<g>
			<path fill-rule="evenodd" clip-rule="evenodd" fill="#243847" d="M78.535,34.205c-0.088-0.017-0.175-0.051-0.264-0.055
				c-1.712-0.095-3.311-0.546-4.658-1.673c-1.14-0.952-1.857-2.212-2.226-3.654c-0.206-0.801-0.317-1.631-0.415-2.454
				c-0.072-0.611-0.07-1.23-0.071-1.847c-0.004-4.604-0.002-9.205-0.002-13.808c0-0.111,0-0.221,0-0.345c2.553,0,5.073,0,7.633,0
				c0,0.103,0,0.204,0,0.303c0,4.333-0.017,8.665,0.01,12.998c0.007,1.166,0.193,2.318,0.864,3.319
				c0.577,0.858,1.394,1.317,2.397,1.466c1.502,0.225,2.821-0.217,4.002-1.147c0.843-0.661,1.48-1.517,2.101-2.389
				c0.271-0.384,0.368-0.772,0.363-1.249c-0.015-4.32-0.008-8.646-0.008-12.97c0-0.103,0-0.206,0-0.328
				c0.105-0.007,0.189-0.015,0.271-0.015c2.372-0.001,4.743,0.002,7.112-0.005c0.22,0,0.294,0.05,0.294,0.287
				c-0.006,7.611-0.005,15.218-0.005,22.831c0,0.078,0,0.152,0,0.243c-2.557,0-5.097,0-7.664,0c0-1.37,0-2.752,0-4.182
				c-0.129,0.129-0.223,0.216-0.306,0.303c-0.912,1.023-1.86,1.999-3.011,2.751c-1.103,0.724-2.297,1.211-3.596,1.405
				c-0.474,0.074-0.953,0.106-1.431,0.161c-0.055,0.009-0.107,0.038-0.163,0.055C79.353,34.205,78.943,34.205,78.535,34.205z"/>
			<polygon fill-rule="evenodd" clip-rule="evenodd" fill="#243847" points="88.269,34.159 88.269,33.365 95.933,33.365 
				95.933,34.205 			"/>
			<path fill-rule="evenodd" clip-rule="evenodd" fill="#243847" d="M44.817,2.034c3,0,6.004,0,9.035,0c0,8.403,0,16.789,0,25.207
				c5.068,0,10.102,0,15.155,0c0,2.321,0,4.623,0,6.958c-0.105,0-0.211,0-0.317,0c-7.855,0-15.712,0-23.567,0
				c-0.102,0-0.204,0-0.305,0C44.817,23.481,44.817,12.757,44.817,2.034z"/>
			<path fill-rule="evenodd" clip-rule="evenodd" fill="#243847" d="M150.99,34.76c-0.133-0.021-0.264-0.05-0.397-0.057
				c-2.762-0.145-5.368-0.807-7.671-2.456c-2.236-1.603-3.603-3.797-4.269-6.483c-0.342-1.392-0.429-2.81-0.342-4.224
				c0.145-2.396,0.85-4.604,2.334-6.503c0.99-1.271,2.219-2.253,3.648-2.969c1.331-0.665,2.729-1.111,4.196-1.313
				c0.65-0.089,1.305-0.163,1.961-0.207c0.653-0.042,1.313-0.083,1.965-0.047c1.528,0.079,3.009,0.397,4.423,1.02
				c1.3,0.571,2.45,1.36,3.424,2.409c1.135,1.219,1.927,2.646,2.38,4.253c0.235,0.834,0.377,1.7,0.519,2.562
				c0.187,1.098,0.165,2.209,0.155,3.32c0,0.034-0.007,0.07-0.014,0.125c-5.746,0-11.48,0-17.235,0
				c0.125,0.781,0.316,1.505,0.672,2.173c1.044,1.976,2.725,3.084,4.798,3.637c0.754,0.202,1.531,0.284,2.308,0.255
				c1.885-0.065,3.737-0.366,5.531-0.957c1.014-0.335,2.003-0.741,3.002-1.116c0.087-0.032,0.174-0.058,0.279-0.091
				c0,1.385,0,2.752-0.008,4.12c-0.003,0.078-0.1,0.194-0.181,0.235c-1.016,0.517-2.063,0.97-3.161,1.256
				c-1.014,0.265-2.037,0.495-3.066,0.679c-0.771,0.14-1.552,0.19-2.331,0.268c-0.338,0.033-0.678,0.036-1.019,0.055
				c-0.073,0.007-0.142,0.036-0.214,0.057C152.115,34.76,151.554,34.76,150.99,34.76z M156.208,20.942
				c0.025-1.046-0.062-2.045-0.406-3.003c-0.456-1.268-1.258-2.221-2.495-2.741c-1.073-0.449-2.185-0.523-3.319-0.268
				c-1.526,0.343-2.659,1.209-3.4,2.61c-0.424,0.807-0.587,1.679-0.663,2.576c-0.021,0.271-0.004,0.545-0.004,0.826
				C149.366,20.942,152.773,20.942,156.208,20.942z"/>
			<path fill-rule="evenodd" clip-rule="evenodd" fill="#243847" d="M112.446,2.061c0.069,0.018,0.142,0.045,0.212,0.052
				c0.879,0.089,1.762,0.17,2.641,0.269c0.131,0.013,0.269,0.041,0.265,0.256c-0.007,1.563-0.003,3.125-0.005,4.687
				c0,0.05-0.009,0.098-0.019,0.168c-0.449-0.071-0.883-0.153-1.321-0.207c-0.83-0.102-1.665-0.196-2.484,0.05
				c-1.177,0.354-1.838,1.206-2.15,2.355c-0.248,0.903-0.143,1.827-0.161,2.765c1.452,0,2.882,0,4.332,0c0,1.583,0,3.147,0,4.733
				c-1.432,0-2.86,0-4.332,0c0,0.118,0,0.216,0,0.315c0,3.674,0,7.346,0.004,11.021c0,0.212-0.047,0.354-0.21,0.521
				c-0.834,0.838-1.726,1.595-2.69,2.271c-1.682,1.19-3.499,2.092-5.514,2.537c-0.584,0.133-1.189,0.178-1.819,0.269
				c0.36-0.252,0.706-0.442,0.994-0.698c0.767-0.682,1.173-1.582,1.403-2.566c0.101-0.433,0.153-0.888,0.157-1.334
				c0.01-4,0.004-8,0.004-11.997c0-0.102,0-0.201,0-0.322c-1.317,0-2.608,0-3.92,0c0-1.584,0-3.15,0-4.734c1.297,0,2.591,0,3.92,0
				c0-0.144,0-0.269,0-0.393c0.013-1.545,0.156-3.067,0.717-4.523c0.468-1.22,1.151-2.293,2.119-3.166
				c1.124-1.009,2.443-1.653,3.913-1.957c0.781-0.161,1.581-0.217,2.371-0.323c0.067-0.008,0.129-0.033,0.194-0.051
				C111.523,2.061,111.984,2.061,112.446,2.061z"/>
			<path fill-rule="evenodd" clip-rule="evenodd" fill="#243847" d="M166.763,34.146c2.581,0,5.139,0,7.694,0
				c0-10.739,0-21.456,0-32.17c-2.578,0-5.13,0-7.694,0C166.763,12.702,166.763,23.415,166.763,34.146z"/>
			<path fill-rule="evenodd" clip-rule="evenodd" fill="#243847" d="M183.679,21.671c3.027-3.629,6.039-7.237,9.106-10.907
				c-0.169,0-0.269,0-0.366,0c-2.712,0-5.427,0.006-8.139-0.007c-0.375-0.002-0.678,0.04-0.871,0.413
				c-0.065,0.128-0.184,0.228-0.274,0.341c-0.581,0.724-1.159,1.451-1.738,2.175c-0.576,0.719-1.15,1.437-1.727,2.152
				c-0.569,0.71-1.141,1.419-1.708,2.129c-0.587,0.734-1.169,1.469-1.753,2.199c-0.492,0.616-0.983,1.232-1.477,1.847
				c0.098,0.125,0.187,0.243,0.275,0.355c0.525,0.648,1.053,1.294,1.577,1.942c0.608,0.756,1.214,1.512,1.827,2.268
				c0.604,0.749,1.212,1.497,1.817,2.244c0.686,0.852,1.365,1.704,2.05,2.554c0.624,0.777,1.26,1.546,1.871,2.335
				c0.248,0.318,0.498,0.477,0.928,0.471c2.909-0.023,5.818-0.013,8.726-0.013c0.098,0,0.197,0,0.37,0
				C190.653,29.973,187.177,25.836,183.679,21.671z"/>
			<path fill-rule="evenodd" clip-rule="evenodd" fill="#243847" d="M116.378,23.402c1.274-0.863,2.408-1.88,3.479-2.983
				c1.156-1.189,2.215-2.479,3.189-3.843c1.552-2.175,2.9-4.482,3.987-6.958c0.124-0.287,0.192-0.576,0.192-0.901
				c-0.011-2.115-0.007-4.229-0.007-6.345c0-0.104,0-0.208,0-0.293c-0.245-0.079-0.381,0.024-0.525,0.174
				c-3.637,3.838-7.276,7.671-10.916,11.508c-0.047,0.048-0.108,0.11-0.11,0.169c-0.016,0.265-0.007,0.533-0.007,0.815
				c1.313,0,2.59,0,3.886,0c0,0.982,0,1.943-0.002,2.905c0,0.033-0.025,0.065-0.032,0.099c-0.461,1.781-1.313,3.342-2.425,4.75
				C116.849,22.799,116.613,23.102,116.378,23.402z"/>
			<path fill-rule="evenodd" clip-rule="evenodd" fill="#243847" d="M135.438,14.734c0.011-0.071,0.02-0.098,0.02-0.123
				c0-1.611-0.002-3.224,0.002-4.834c0.002-0.188-0.074-0.222-0.23-0.222c-1.703,0.005-3.411,0-5.118,0.012
				c-0.095,0-0.235,0.096-0.283,0.188c-0.822,1.636-1.743,3.208-2.76,4.718c-1.296,1.932-2.71,3.765-4.283,5.452
				c-0.995,1.067-2.058,2.071-3.08,3.113c-0.085,0.088-0.146,0.243-0.15,0.372c-0.018,0.495-0.003,0.987-0.009,1.482
				c-0.002,0.223,0.009,0.455-0.034,0.671c-0.158,0.788-0.525,1.479-0.946,2.135c-0.616,0.959-1.389,1.772-2.222,2.521
				c-0.152,0.14-0.305,0.271-0.461,0.409c0.013,0.021,0.025,0.04,0.036,0.063c0.745-0.343,1.505-0.658,2.231-1.037
				c2.014-1.063,3.767-2.525,5.454-4.067c1.267-1.16,2.349-2.509,3.259-4.004c0.245-0.406,0.371-0.811,0.366-1.302
				c-0.025-1.743-0.011-3.49-0.011-5.236c0-0.096,0-0.192,0-0.312C129.974,14.734,132.699,14.734,135.438,14.734z"/>
			<path fill-rule="evenodd" clip-rule="evenodd" fill="#243847" d="M127.683,34.183c-0.112-0.02-0.225-0.049-0.337-0.058
				c-1.813-0.107-3.535-0.511-5.03-1.673c-0.908-0.707-1.55-1.628-1.997-2.716c-0.033-0.081-0.065-0.164-0.114-0.288
				c2.653-0.757,4.988-2.162,7.094-3.955c0.186,0.414,0.33,0.847,0.555,1.215c0.381,0.629,0.968,0.968,1.641,1.175
				c0.847,0.255,1.702,0.235,2.564,0.155c1.359-0.127,2.581-0.688,3.8-1.275c0.062-0.029,0.123-0.055,0.202-0.097
				c0.004,0.104,0.012,0.184,0.012,0.262c0.001,1.756-0.002,3.509,0.007,5.264c0,0.195-0.058,0.28-0.221,0.352
				c-1.353,0.562-2.739,1.013-4.177,1.256c-0.83,0.142-1.667,0.219-2.503,0.331c-0.056,0.004-0.11,0.033-0.165,0.053
				C128.568,34.183,128.125,34.183,127.683,34.183z"/>
			<path fill="none" d="M101.754,24.027"/>
			<path fill="#243847" d="M101.751,26.534l0.003,2.183c0,0,0.368,3.67-3.923,5.482c0,0,5.679,0.355,10.734-4.524L101.751,26.534z"
				/>
			<line fill-rule="evenodd" clip-rule="evenodd" fill="#243847" x1="101.754" y1="34.199" x2="109.423" y2="34.205"/>
			<path fill-rule="evenodd" clip-rule="evenodd" fill="#243847" d="M109.423,34.205v-3.654c0,0-2.272,3.07-7.668,3.648"/>
		</g>
		<g>
			<path fill-rule="evenodd" clip-rule="evenodd" fill="#12426C" d="M24.416,34.36c-0.056,0-0.11,0-0.167,0
				c-0.016-0.032-0.045-0.028-0.073-0.028c-0.284,0-0.568,0-0.852,0c-0.027,0-0.057-0.004-0.074,0.028c-0.071,0-0.142,0-0.213,0
				c-0.015-0.036-0.046-0.023-0.072-0.023c-0.959-0.042-1.91-0.161-2.842-0.39c-4.703-1.156-8.243-3.855-10.588-8.095
				c-1.23-2.235-1.839-4.644-1.909-7.194c0-0.277,0-0.558,0-0.833c0.029-1.209,0.177-2.4,0.49-3.564
				c1.246-4.631,3.992-8.068,8.203-10.337c0.39-0.209,0.788-0.402,1.203-0.556c0.341,1.032,0.685,2.061,1.027,3.09
				c-0.027,0.015-0.054,0.03-0.083,0.044c-2.69,1.237-4.732,3.165-6.132,5.78c-0.039,0.075-0.041,0.129,0.003,0.204
				c0.222,0.372,0.438,0.745,0.655,1.119c0.013,0.021,0.019,0.055,0.06,0.062c0.032-0.572,0.062-1.138,0.091-1.705
				c0.003-0.061,0.008-0.094,0.085-0.089c0.351,0.023,0.703,0.043,1.056,0.059c0.074,0.005,0.088,0.026,0.083,0.1
				c-0.063,1.161-0.123,2.322-0.184,3.486c-0.004,0.085,0.014,0.159,0.058,0.234c0.616,1.056,1.233,2.113,1.85,3.171
				c0.118,0.201,0.118,0.194,0.338,0.152c0.089-0.016,0.115-0.049,0.114-0.136c-0.004-0.633-0.004-1.265,0-1.894
				c0.001-0.086-0.03-0.129-0.098-0.173c-0.66-0.419-1.317-0.847-1.98-1.265c-0.101-0.063-0.1-0.105-0.038-0.196
				c0.179-0.261,0.349-0.529,0.515-0.799c0.054-0.088,0.091-0.107,0.186-0.045c0.428,0.284,0.863,0.562,1.297,0.837
				c0.033,0.021,0.063,0.065,0.115,0.049c0-0.43,0.002-0.859,0-1.289c-0.001-0.08,0.021-0.1,0.099-0.1
				c0.337,0.006,0.675,0.006,1.01-0.001c0.1,0,0.116,0.036,0.115,0.123c-0.003,0.4-0.002,0.801-0.001,1.204
				c0,0.031-0.018,0.069,0.02,0.098c0.015-0.007,0.028-0.011,0.042-0.018c0.443-0.247,0.887-0.489,1.329-0.738
				c0.073-0.042,0.103-0.031,0.142,0.042c0.159,0.297,0.321,0.594,0.491,0.884c0.052,0.087,0.024,0.114-0.05,0.158
				c-0.629,0.343-1.254,0.69-1.881,1.037c-0.06,0.032-0.095,0.062-0.094,0.142c0.002,0.655,0.001,1.312,0,1.964
				c0,0.067,0.013,0.097,0.085,0.109c0.604,0.132,1.139,0.402,1.593,0.826c0.057,0.053,0.096,0.059,0.161,0.017
				c0.321-0.187,0.645-0.37,0.97-0.549c0.071-0.042,0.09-0.084,0.088-0.16c-0.023-0.718-0.042-1.436-0.065-2.155
				c-0.003-0.081,0.013-0.108,0.101-0.112c0.34-0.003,0.681-0.011,1.02-0.025c0.083-0.003,0.109,0.017,0.11,0.1
				c0.005,0.397,0.018,0.794,0.026,1.193c0.003,0.132,0,0.267,0,0.424c0.064-0.038,0.099-0.055,0.132-0.074
				c0.275-0.158,0.553-0.31,0.825-0.472c0.081-0.049,0.109-0.032,0.149,0.042c0.11,0.207,0.23,0.406,0.345,0.61
				c0.066,0.116,0.198,0.251,0.175,0.349c-0.026,0.11-0.216,0.15-0.333,0.218c-0.227,0.132-0.454,0.263-0.691,0.396
				c0.047,0.025,0.079,0.042,0.11,0.058c0.466,0.239,0.93,0.474,1.397,0.707c0.07,0.038,0.081,0.062,0.044,0.133
				c-0.157,0.301-0.312,0.604-0.46,0.913c-0.04,0.078-0.071,0.082-0.148,0.046c-0.708-0.364-1.418-0.72-2.128-1.079
				c-0.066-0.034-0.117-0.041-0.184,0c-0.256,0.148-0.513,0.301-0.773,0.442c-0.074,0.042-0.089,0.074-0.056,0.154
				c0.274,0.65,0.33,1.325,0.181,2.018c-0.017,0.076-0.007,0.108,0.062,0.146c0.489,0.259,0.979,0.523,1.463,0.788
				c0.066,0.038,0.11,0.025,0.168-0.013c0.59-0.392,1.185-0.779,1.772-1.176c0.104-0.071,0.142-0.051,0.201,0.047
				c0.167,0.263,0.34,0.522,0.52,0.783c0.063,0.087,0.063,0.132-0.038,0.194c-0.44,0.28-0.872,0.57-1.317,0.868
				c0.33,0.177,0.65,0.352,0.971,0.52c0.047,0.029,0.083,0.042,0.044,0.112c-0.174,0.313-0.34,0.627-0.508,0.941
				c-0.028,0.054-0.052,0.066-0.109,0.034c-0.109-0.063-0.222-0.12-0.333-0.184c-0.218-0.114-0.436-0.229-0.671-0.358
				c0.052,0.562,0.095,1.104,0.153,1.644c0.013,0.116-0.018,0.149-0.13,0.154c-0.323,0.02-0.647,0.053-0.971,0.087
				c-0.099,0.011-0.119-0.018-0.126-0.108c-0.069-0.802-0.144-1.603-0.213-2.405c-0.003-0.053-0.021-0.078-0.065-0.104
				c-0.452-0.239-0.9-0.479-1.347-0.722c-0.05-0.028-0.073-0.021-0.104,0.021c-0.089,0.11-0.178,0.227-0.277,0.326
				c-0.063,0.067-0.073,0.106-0.023,0.19c0.534,0.908,1.064,1.817,1.59,2.731c0.041,0.065,0.092,0.116,0.16,0.152
				c0.992,0.532,1.985,1.065,2.979,1.599c0.078,0.041,0.1,0.076,0.051,0.157c-0.163,0.29-0.319,0.584-0.473,0.881
				c-0.041,0.074-0.073,0.098-0.158,0.046c-0.415-0.229-0.835-0.452-1.254-0.675c-0.012-0.004-0.024-0.017-0.032,0.004
				c-0.003,0.005,0.008,0.013,0.013,0.021c0.228,0.397,0.458,0.789,0.679,1.186c0.048,0.083,0.104,0.112,0.197,0.116
				c1.346,0.038,2.668-0.12,3.965-0.487c0.857-0.239,1.679-0.579,2.47-0.988c0.014,0.021,0.026,0.042,0.041,0.058
				c0.666,0.855,1.372,1.683,2.141,2.447c-0.021,0.013-0.043,0.032-0.067,0.045c-0.603,0.352-1.224,0.662-1.867,0.934
				c-1.642,0.686-3.35,1.095-5.124,1.215C24.718,34.328,24.563,34.308,24.416,34.36z"/>
			<path fill-rule="evenodd" clip-rule="evenodd" fill="#606C8C" d="M23.25,34.36c0.017-0.032,0.047-0.028,0.074-0.028
				c0.284,0,0.568,0,0.852,0c0.028,0,0.058-0.004,0.073,0.028C23.916,34.36,23.583,34.36,23.25,34.36z"/>
			<path fill-rule="evenodd" clip-rule="evenodd" fill="#ADB1C1" d="M7.626,18.658c-0.006,0-0.015,0-0.021,0
				c0-0.278,0-0.558,0-0.833c0.006-0.004,0.014-0.004,0.021,0C7.626,18.101,7.626,18.381,7.626,18.658z"/>
			<path fill-rule="evenodd" clip-rule="evenodd" fill="#EDD0C6" d="M23.465,2.118c0-0.006,0-0.014,0-0.02c0.183,0,0.364,0,0.546,0
				c0,0.005,0.001,0.013,0.001,0.02C23.83,2.118,23.647,2.118,23.465,2.118z"/>
			<path fill-rule="evenodd" clip-rule="evenodd" fill="#BF333D" d="M39.452,14.593c-0.647-2.766-1.93-5.197-3.855-7.279
				c-2.173-2.352-4.818-3.923-7.92-4.713c-1.2-0.307-2.424-0.461-3.664-0.482h-0.548c-1.592,0.029-3.143,0.281-4.657,0.768
				c-0.437,0.142-0.871,0.289-1.287,0.482c0.341,1.032,0.685,2.061,1.027,3.09c0.34-0.136,0.68-0.278,1.027-0.395
				c0.975-0.33,1.975-0.544,2.999-0.635c0.726-0.064,1.447-0.063,2.173-0.018c0.034,0.003,0.07,0.013,0.106,0.011
				c0.078-0.001,0.103,0.033,0.118,0.11c0.006,0.035,0.011,0.068,0.018,0.101c0.255-0.058,0.519-0.091,0.789-0.091
				c0.995,0,1.903,0.421,2.56,1.089c0.459,0.022,0.9,0.132,1.302,0.316c0.008-0.016,0.019-0.033,0.027-0.051
				c0.027-0.051,0.047-0.058,0.098-0.03c0.328,0.177,0.648,0.366,0.962,0.564c0.06,0.04,0.054,0.07,0.027,0.124
				c-0.019,0.041-0.039,0.081-0.059,0.122c0.333,0.328,0.604,0.718,0.79,1.15c0.136,0.096,0.263,0.202,0.383,0.315
				c1.839,0.151,3.324,1.726,3.324,3.598c0,0.237-0.023,0.471-0.07,0.697c0.931,0.657,1.551,1.737,1.551,2.944
				c0,0.713-0.217,1.378-0.582,1.939c-0.18,0.664-0.542,1.257-1.034,1.715c0.014,0.127,0.021,0.254,0.021,0.386
				c0,0.705-0.213,1.367-0.575,1.929c0.003,0.036,0.006,0.08,0.006,0.12c0,1.385-0.814,2.608-1.981,3.21
				c-0.211,0.881-0.745,1.646-1.474,2.149c0.152,0.169,0.308,0.335,0.473,0.491c0.072,0.067,0.08,0.096-0.007,0.161
				c-0.545,0.413-1.117,0.777-1.719,1.101c-0.02,0.007-0.039,0.023-0.059,0.036c0.014,0.021,0.026,0.042,0.041,0.058
				c0.666,0.855,1.372,1.683,2.141,2.447c0.235-0.116,0.447-0.265,0.666-0.409c1.523-1.005,2.846-2.229,3.952-3.678
				c2.045-2.69,3.15-5.728,3.306-9.108C39.917,17.464,39.784,16.02,39.452,14.593z"/>
			<path fill-rule="evenodd" clip-rule="evenodd" fill="#FEFEFE" d="M22.435,29.791c-0.004-0.009-0.016-0.017-0.013-0.021
				c0.007-0.021,0.02-0.008,0.032-0.004C22.448,29.774,22.441,29.782,22.435,29.791z"/>
			<g>
				<path fill="#BF333D" d="M24.744,5.362c0,0,1.976,5.574-0.971,9.148c0,0,2.292,0.125,5.667-7.785L29.25,4.659l-4.627-1.063"/>
				<path fill="#BF333D" d="M30.843,7.314c0,0-2.554,6.657-4.274,7.843c0,0,1.164,2.021-1.796,5.586c0,0,3.339-1.234,8.271-11.316
					l-0.683-3.025L30.843,7.314z"/>
				<path fill="#BF333D" d="M34.323,10.344c0,0-3.102,8.034-6.486,10.29c0,0,1.501,2.732-1.091,6.091c0,0,5.684-3.743,9.058-13.029
					l-0.735-3.773L34.323,10.344z"/>
				<path fill="#BF333D" d="M36.724,15.943c0,0-2.847,8.347-6.109,10.244c0,0-0.038,1.479,1.024,2.235l6.45-8.003l-0.417-4.743
					L36.724,15.943z"/>
			</g>
		</g>
	</g>
	<g>
		<path fill="#243847" d="M191.493,2.967V2.2h3.869v0.767h-1.497v4.191h-0.87V2.967H191.493z"/>
		<path fill="#243847" d="M196.095,7.158V2.2h1.229l1.347,3.263l1.354-3.263h1.226v4.958h-0.87V3.477l-1.524,3.681h-0.37
			l-1.517-3.681v3.681H196.095z"/>
	</g>
</g>
</svg>
